<svg xmlns="http://www.w3.org/2000/svg" width="16" height="16" viewBox="0 0 24 24" fill="#ff6b00">
  <g transform="scale(0.0131) translate(2266, 331)">
    <path
      d="m-2096-331-105 438 107 463-172 376 158 45c-21 13-82 46-82 46s409 146 438 158l166 246 179 59c6 3 172-53 195-61l168-245s383-131 455-157l-87-45 176-45s-108-222-139-290c-12-28-26-56-40-83l-13-27 86-440-105-438-491 445h-403l-491-445Zm41 138 292 451-263 242-99-390 70-303Zm1303-1 70 306-93 375-268-230 291-451Zm-1109 864 220 61 88 140s34 455 37 457l113 71 116-73 34-455s71-112 91-140c52-16 197-55 218-60-15 23-93 130-100 141-2 2-134 42-164 53l-16 34 46 327 67-183 270-188c2-1 178 43 253 63-33 10-226 58-226 58 24 14 91 47 99 52l-359 125c-4 2-151 219-168 243-2 3-157 54-157 54l-155-51-167-246c-3-3-327-120-349-128l87-51c-15-6-190-54-197-56l211-64 272 187 68 183c3-23 41-280 46-324 0-3-10-25-15-34-4-6-129-43-164-53-16-20-81-117-99-143Z" />
  </g>
</svg>